<svg xmlns="http://www.w3.org/2000/svg" width="61.639" height="64.799" viewBox="0 0 61.639 64.799">
  <g id="Chat_icon-01" data-name="Chat icon-01" transform="translate(0.525 0.525)">
    <path id="Path_16" data-name="Path 16" d="M96.585,60.4a27,27,0,1,1-27-27A27,27,0,0,1,96.585,60.4Z" transform="translate(-38.994 -30.27)" fill="#356ab3"/>
    <path id="Path_17" data-name="Path 17" d="M114.844,87.474a18.211,18.211,0,1,1-18.208,18.211A18.21,18.21,0,0,1,114.844,87.474Z" transform="translate(-84.706 -75.73)" fill="#fff"/>
    <path id="Path_18" data-name="Path 18" d="M39.7,70.728c-25,19.558-9.488-8.222-9.488-8.222h0a32.922,32.922,0,0,1-5.888-14.43A30.285,30.285,0,1,1,39.7,70.728Z" transform="translate(-24.071 -13.93)" fill="none" stroke="#9b9c9b" stroke-miterlimit="10" stroke-width="1"/>
    <g id="Group_24" data-name="Group 24" transform="translate(14.612 16.382)">
      <g id="Group_19" data-name="Group 19" transform="translate(20.578 17.187)">
        <g id="Group_18" data-name="Group 18">
          <path id="Path_19" data-name="Path 19" d="M174.944,153.866l-3.629-3.628a2.628,2.628,0,0,0-3.628,0l-.6.606,7.256,7.256.6-.6A2.567,2.567,0,0,0,174.944,153.866Z" transform="translate(-167.083 -149.512)" fill="#ef8520"/>
        </g>
      </g>
      <g id="Group_21" data-name="Group 21" transform="translate(0 2.592)">
        <g id="Group_20" data-name="Group 20">
          <path id="Path_20" data-name="Path 20" d="M139.249,133.166a1.926,1.926,0,0,1-2.551-.132l-7.172-7.179a1.925,1.925,0,0,1-.132-2.55l-7.24-7.24A9.238,9.238,0,0,0,122.6,128.6l11.352,11.359a9.177,9.177,0,0,0,12.538.443Z" transform="translate(-119.916 -116.064)" fill="#ef8520"/>
        </g>
      </g>
      <g id="Group_23" data-name="Group 23" transform="translate(3.399 0)">
        <g id="Group_22" data-name="Group 22">
          <path id="Path_21" data-name="Path 21" d="M135.568,114.48l-3.628-3.629a2.628,2.628,0,0,0-3.628,0l-.6.6,7.257,7.258.6-.606A2.565,2.565,0,0,0,135.568,114.48Z" transform="translate(-127.707 -110.125)" fill="#ef8520"/>
        </g>
      </g>
    </g>
  </g>
</svg>
