<svg id="company-name" xmlns="http://www.w3.org/2000/svg" width="44.031" height="47.633" viewBox="0 0 44.031 47.633">
  <path id="Path_499" data-name="Path 499" d="M12.3,54.986a2.681,2.681,0,0,0,2.677,2.677H43.928A2.681,2.681,0,0,0,46.6,54.986V39.746l-1.966,4.261a3.51,3.51,0,0,1-1.42,1.529h0L37.591,48.6a2.539,2.539,0,0,1-1.147.273,2.139,2.139,0,0,1-1.42-.492,2.222,2.222,0,0,1-.819-1.366L33.112,42.04H20.548a1.256,1.256,0,1,1,0-2.513H32.839a4.806,4.806,0,0,1,.273-.819l1.639-3.551h-14.2a1.256,1.256,0,0,1,0-2.513H35.9L42.125,19.1l.656-1.366h0l.055-.109L44.31,14.4H24.645v8.521a3.835,3.835,0,0,1-3.824,3.824H12.355L12.3,54.986Zm8.248-9.013H30a1.256,1.256,0,0,1,0,2.513h-9.45a1.236,1.236,0,0,1-1.256-1.256A1.271,1.271,0,0,1,20.548,45.973Z" transform="translate(-12.3 -10.03)"/>
  <path id="Path_500" data-name="Path 500" d="M20.916,25.316a2.308,2.308,0,0,0,2.294-2.294V15.647A1.119,1.119,0,0,0,22.063,14.5a1.312,1.312,0,0,0-.819.328l-8.521,8.521a1.118,1.118,0,0,0,.819,1.912h7.374Z" transform="translate(-12.34 -10.075)"/>
  <path id="Path_501" data-name="Path 501" d="M83.212,8.53,79.061,6.619a2.6,2.6,0,0,0-3.387,1.256L74.8,9.732l8.74,4.042h0l.874-1.857A2.436,2.436,0,0,0,83.212,8.53Z" transform="translate(-40.659 -6.4)"/>
  <path id="Path_502" data-name="Path 502" d="M81.079,19.151v-.109L72.339,15l-.055.109-.109.219L70.7,18.551,73.1,19.7l6.337,2.9Z" transform="translate(-38.799 -10.302)"/>
  <path id="Path_503" data-name="Path 503" d="M65.254,40.533l5.681-12.291L65.254,25.62,62.14,24.2l-5.9,12.837L55.093,39.55,53.4,43.264l1.42.655L59.081,46l3,1.42Z" transform="translate(-30.949 -14.477)"/>
  <path id="Path_504" data-name="Path 504" d="M52.6,61.8v.164l.328,1.529.983,4.7a.823.823,0,0,0,.819.655,1.013,1.013,0,0,0,.382-.109l5.681-3h0L56.26,63.548Z" transform="translate(-30.586 -31.538)"/>
</svg>
