
            <svg id="_2-01_7_" data-name="2-01 (7)" xmlns="http://www.w3.org/2000/svg" width="44.031" height="45.762" viewBox="0 0 44.031 45.762">
                <g id="Group_3410" data-name="Group 3410" transform="translate(0 0)">
                  <path id="Path_2524" data-name="Path 2524" d="M33.489,41.175a35.963,35.963,0,0,1-8.483-6.633,37.057,37.057,0,0,1-6.39-8.828l2.271-6.336L13.229,7,10.705,9.629l0,.005c-.016.019-.036.03-.056.053C4.288,16.3,7.717,29.833,18.626,41.169s23.935,14.9,30.3,8.284c.018-.019.031-.04.049-.057L51.5,46.77,39.593,38.814Z" transform="translate(-7.466 -7.002)"/>
                  <path id="Path_2525" data-name="Path 2525" d="M50.385,30.823h3.527C53.912,17.69,43.632,7,30.991,7v3.665C41.685,10.667,50.385,19.71,50.385,30.823Z" transform="translate(-9.881 -7.002)"/>
                  <path id="Path_2526" data-name="Path 2526" d="M43.331,31.661h3.526c0-9.1-7.115-16.491-15.869-16.491v3.665A12.607,12.607,0,0,1,43.331,31.661Z" transform="translate(-9.881 -7.841)"/>
                  <path id="Path_2527" data-name="Path 2527" d="M36.279,32.5H39.8a9,9,0,0,0-8.814-9.162V27A5.4,5.4,0,0,1,36.279,32.5Z" transform="translate(-9.881 -8.679)"/>
                </g>
              </svg>