<svg id="_x32_" xmlns="http://www.w3.org/2000/svg" xmlns:xlink="http://www.w3.org/1999/xlink" width="255.215" height="73.674" viewBox="0 0 255.215 73.674">
  <defs>
    <clipPath id="clip-path">
      <rect id="Rectangle_401" data-name="Rectangle 401" width="255.214" height="73.674"/>
    </clipPath>
  </defs>
  <g id="Group_776" data-name="Group 776" transform="translate(0 0)" clip-path="url(#clip-path)">
    <path id="Path_331" data-name="Path 331" d="M0,0H256.778V74.177H0Z" transform="translate(-0.639 -0.502)" fill="#006fdb"/>
    <g id="Group_775" data-name="Group 775" transform="translate(60.116 -30.263)" opacity="0.06">
      <path id="Path_178" data-name="Path 178" d="M287.4,37.032A66.379,66.379,0,1,1,221.022-29.4,66.406,66.406,0,0,1,287.4,37.032Z" transform="translate(-154.647 29.396)" fill="#fff" stroke="#006dda" stroke-miterlimit="10" stroke-width="2.143"/>
      <g id="Group_774" data-name="Group 774" transform="translate(9.487 9.808)">
        <path id="Path_179" data-name="Path 179" d="M273.55,32.827a56.892,56.892,0,1,1-56.893-56.934A56.916,56.916,0,0,1,273.55,32.827Z" transform="translate(-159.767 24.107)" fill="#006dda"/>
        <ellipse id="Ellipse_99" data-name="Ellipse 99" cx="28.976" cy="28.997" rx="28.976" ry="28.997" transform="translate(27.755 27.786)" fill="#fff"/>
        <path id="Path_180" data-name="Path 180" d="M222.491,16.558A22.056,22.056,0,1,1,200.435-5.513,22.062,22.062,0,0,1,222.491,16.558Z" transform="translate(-143.89 39.994)" fill="#f18400"/>
      </g>
    </g>
  </g>
</svg>
