<svg id="Group_3" data-name="Group 3" xmlns="http://www.w3.org/2000/svg" width="43.258" height="36.402" viewBox="0 0 43.258 36.402">
  <path id="Path_471" data-name="Path 471" d="M67.438,19.595a7.856,7.856,0,0,1,3.657,5.841,6.342,6.342,0,1,0-3.657-5.841ZM63.28,32.585a6.344,6.344,0,1,0-6.345-6.344A6.343,6.343,0,0,0,63.28,32.585Zm2.691.434H60.588a8.132,8.132,0,0,0-8.123,8.123v6.584l.017.1.454.143A36.978,36.978,0,0,0,63.981,49.75a22.613,22.613,0,0,0,9.644-1.812l.423-.215h.045V41.14A8.128,8.128,0,0,0,65.971,33.019Zm10.5-6.55H71.126a7.817,7.817,0,0,1-2.411,5.445,9.655,9.655,0,0,1,6.893,9.238v2.028a21.871,21.871,0,0,0,8.513-1.789l.424-.215h.045V34.59A8.13,8.13,0,0,0,76.47,26.469Zm-24.321-.432a6.3,6.3,0,0,0,3.372-.978,7.861,7.861,0,0,1,2.953-5.009c.006-.118.018-.237.018-.355a6.344,6.344,0,1,0-6.344,6.342Zm5.7,5.878A7.821,7.821,0,0,1,55.435,26.5c-.2-.015-.394-.031-.6-.031H49.454a8.131,8.131,0,0,0-8.121,8.121v6.585l.015.1.455.143a37.993,37.993,0,0,0,9.147,1.718V41.151A9.654,9.654,0,0,1,57.846,31.914Z" transform="translate(-41.333 -13.348)"/>
</svg>
 