<svg xmlns="http://www.w3.org/2000/svg" width="28.916" height="18.945" viewBox="0 0 28.916 18.945">
  <g id="united-states" transform="translate(0 0)">
    <path id="Path_606" data-name="Path 606" d="M28.417,107.221H.5a.5.5,0,0,1-.5-.5V88.775a.5.5,0,0,1,.5-.5H28.417a.5.5,0,0,1,.5.5v17.948A.5.5,0,0,1,28.417,107.221Z" transform="translate(0 -88.276)" fill="#f5f5f5"/>
    <g id="Group_2177" data-name="Group 2177">
      <path id="Path_607" data-name="Path 607" d="M28.916,89.733H0v-.959a.5.5,0,0,1,.5-.5H28.417a.5.5,0,0,1,.5.5v.959Z" transform="translate(0 -88.276)" fill="#ff4b55"/>
      <rect id="Rectangle_1564" data-name="Rectangle 1564" width="28.916" height="1.457" transform="translate(0 5.829)" fill="#ff4b55"/>
      <rect id="Rectangle_1565" data-name="Rectangle 1565" width="28.916" height="1.457" transform="translate(0 2.914)" fill="#ff4b55"/>
      <path id="Path_608" data-name="Path 608" d="M28.916,244.555H.5a.5.5,0,0,1-.5-.5V243.1H28.916Z" transform="translate(0 -234.354)" fill="#ff4b55"/>
      <rect id="Rectangle_1566" data-name="Rectangle 1566" width="28.916" height="1.457" transform="translate(0 14.573)" fill="#ff4b55"/>
      <path id="Path_609" data-name="Path 609" d="M28.417,399.378H.5a.5.5,0,0,1-.5-.5v-.959H28.916v.959A.5.5,0,0,1,28.417,399.378Z" transform="translate(0 -380.434)" fill="#ff4b55"/>
      <rect id="Rectangle_1567" data-name="Rectangle 1567" width="28.916" height="1.457" transform="translate(0 11.659)" fill="#ff4b55"/>
    </g>
    <path id="Path_610" data-name="Path 610" d="M12.962,88.277H.5a.5.5,0,0,0-.5.5v9.2a.5.5,0,0,0,.5.5H12.962a.5.5,0,0,0,.5-.5v-9.2A.5.5,0,0,0,12.962,88.277Z" transform="translate(0 -88.277)" fill="#41479b"/>
    <g id="Group_2178" data-name="Group 2178" transform="translate(0.805 1.112)">
      <path id="Path_611" data-name="Path 611" d="M14.848,108l.11.331.349,0a.047.047,0,0,1,.028.085l-.281.207.105.333a.047.047,0,0,1-.072.052l-.284-.2-.284.2a.047.047,0,0,1-.072-.052l.105-.333-.281-.207a.047.047,0,0,1,.028-.085l.349,0,.11-.331A.047.047,0,0,1,14.848,108Z" transform="translate(-14.253 -107.969)" fill="#f5f5f5"/>
      <path id="Path_612" data-name="Path 612" d="M14.848,138.656l.11.331.349,0a.047.047,0,0,1,.028.085l-.281.207.105.333a.047.047,0,0,1-.072.052l-.284-.2-.284.2a.047.047,0,0,1-.072-.052l.105-.333-.281-.207a.047.047,0,0,1,.028-.085l.349,0,.11-.331A.047.047,0,0,1,14.848,138.656Z" transform="translate(-14.253 -136.892)" fill="#f5f5f5"/>
      <path id="Path_613" data-name="Path 613" d="M14.848,169.31l.11.331.349,0a.047.047,0,0,1,.028.085l-.281.207.105.333a.047.047,0,0,1-.072.053l-.284-.2-.284.2a.047.047,0,0,1-.072-.052l.105-.333-.281-.207a.047.047,0,0,1,.028-.085l.349,0,.11-.331A.047.047,0,0,1,14.848,169.31Z" transform="translate(-14.253 -165.815)" fill="#f5f5f5"/>
      <path id="Path_614" data-name="Path 614" d="M14.848,199.964l.11.331.349,0a.047.047,0,0,1,.028.085l-.281.207.105.333a.047.047,0,0,1-.072.052l-.284-.2-.284.2a.047.047,0,0,1-.072-.052l.105-.333-.281-.207a.047.047,0,0,1,.028-.085l.349,0,.11-.331A.047.047,0,0,1,14.848,199.964Z" transform="translate(-14.253 -194.738)" fill="#f5f5f5"/>
      <path id="Path_615" data-name="Path 615" d="M14.848,230.617l.11.331.349,0a.047.047,0,0,1,.028.085l-.281.207.105.332a.047.047,0,0,1-.072.052l-.284-.2-.284.2a.047.047,0,0,1-.072-.053l.105-.333-.281-.207a.047.047,0,0,1,.028-.085l.349,0,.11-.331A.047.047,0,0,1,14.848,230.617Z" transform="translate(-14.253 -223.66)" fill="#f5f5f5"/>
      <path id="Path_616" data-name="Path 616" d="M38.641,123.031l.11.331.349,0a.047.047,0,0,1,.028.085l-.281.207.105.333a.047.047,0,0,1-.072.052l-.284-.2-.284.2a.047.047,0,0,1-.072-.052l.105-.333-.281-.207a.047.047,0,0,1,.028-.085l.349,0,.11-.331A.047.047,0,0,1,38.641,123.031Z" transform="translate(-36.702 -122.15)" fill="#f5f5f5"/>
      <path id="Path_617" data-name="Path 617" d="M38.641,153.685l.11.331.349,0a.047.047,0,0,1,.028.085l-.281.207.105.333a.047.047,0,0,1-.072.052l-.284-.2-.284.2a.047.047,0,0,1-.072-.052l.105-.333-.281-.207a.047.047,0,0,1,.028-.085l.349,0,.11-.331A.047.047,0,0,1,38.641,153.685Z" transform="translate(-36.702 -151.073)" fill="#f5f5f5"/>
      <path id="Path_618" data-name="Path 618" d="M38.641,184.339l.11.331.349,0a.047.047,0,0,1,.028.085l-.281.207.105.333a.047.047,0,0,1-.072.052l-.284-.2-.284.2a.047.047,0,0,1-.072-.052l.105-.333-.281-.207a.047.047,0,0,1,.028-.085l.349,0,.11-.331A.047.047,0,0,1,38.641,184.339Z" transform="translate(-36.702 -179.996)" fill="#f5f5f5"/>
      <path id="Path_619" data-name="Path 619" d="M38.641,214.994l.11.331.349,0a.047.047,0,0,1,.028.085l-.281.207.105.333a.047.047,0,0,1-.072.052l-.284-.2-.284.2a.047.047,0,0,1-.072-.052l.105-.333-.281-.207a.047.047,0,0,1,.028-.085l.349,0,.11-.331A.047.047,0,0,1,38.641,214.994Z" transform="translate(-36.702 -208.919)" fill="#f5f5f5"/>
      <path id="Path_620" data-name="Path 620" d="M62.434,108l.11.331.349,0a.047.047,0,0,1,.028.085l-.281.207.105.333a.047.047,0,0,1-.072.052l-.284-.2-.284.2a.047.047,0,0,1-.072-.052l.105-.333-.281-.207a.047.047,0,0,1,.028-.085l.349,0,.11-.331A.047.047,0,0,1,62.434,108Z" transform="translate(-59.151 -107.969)" fill="#f5f5f5"/>
      <path id="Path_621" data-name="Path 621" d="M62.434,138.656l.11.331.349,0a.047.047,0,0,1,.028.085l-.281.207.105.333a.047.047,0,0,1-.072.052l-.284-.2-.284.2a.047.047,0,0,1-.072-.052l.105-.333-.281-.207a.047.047,0,0,1,.028-.085l.349,0,.11-.331A.047.047,0,0,1,62.434,138.656Z" transform="translate(-59.151 -136.892)" fill="#f5f5f5"/>
      <path id="Path_622" data-name="Path 622" d="M62.434,169.31l.11.331.349,0a.047.047,0,0,1,.028.085l-.281.207.105.333a.047.047,0,0,1-.072.052l-.284-.2-.284.2a.047.047,0,0,1-.072-.052l.105-.333-.281-.207a.047.047,0,0,1,.028-.085l.349,0,.11-.331A.047.047,0,0,1,62.434,169.31Z" transform="translate(-59.151 -165.815)" fill="#f5f5f5"/>
      <path id="Path_623" data-name="Path 623" d="M62.434,199.964l.11.331.349,0a.047.047,0,0,1,.028.085l-.281.207.105.333a.047.047,0,0,1-.072.052l-.284-.2-.284.2a.047.047,0,0,1-.072-.052l.105-.333-.281-.207a.047.047,0,0,1,.028-.085l.349,0,.11-.331A.047.047,0,0,1,62.434,199.964Z" transform="translate(-59.151 -194.738)" fill="#f5f5f5"/>
      <path id="Path_624" data-name="Path 624" d="M62.434,230.617l.11.331.349,0a.047.047,0,0,1,.028.085l-.281.207.105.333a.047.047,0,0,1-.072.052l-.284-.2-.284.2a.047.047,0,0,1-.072-.052l.105-.333-.281-.207a.047.047,0,0,1,.028-.085l.349,0,.11-.331A.047.047,0,0,1,62.434,230.617Z" transform="translate(-59.151 -223.66)" fill="#f5f5f5"/>
      <path id="Path_625" data-name="Path 625" d="M86.228,123.031l.11.331.349,0a.047.047,0,0,1,.028.085l-.281.207.105.333a.047.047,0,0,1-.072.052l-.284-.2-.284.2a.047.047,0,0,1-.072-.052l.105-.333-.281-.207a.047.047,0,0,1,.028-.085l.349,0,.11-.331A.047.047,0,0,1,86.228,123.031Z" transform="translate(-81.601 -122.15)" fill="#f5f5f5"/>
      <path id="Path_626" data-name="Path 626" d="M86.228,153.685l.11.331.349,0a.047.047,0,0,1,.028.085l-.281.207.105.333a.047.047,0,0,1-.072.052l-.284-.2-.284.2a.047.047,0,0,1-.072-.052l.105-.333-.281-.207a.047.047,0,0,1,.028-.085l.349,0,.11-.331A.047.047,0,0,1,86.228,153.685Z" transform="translate(-81.601 -151.073)" fill="#f5f5f5"/>
      <path id="Path_627" data-name="Path 627" d="M86.228,184.339l.11.331.349,0a.047.047,0,0,1,.028.085l-.281.207.105.333a.047.047,0,0,1-.072.052l-.284-.2-.284.2a.047.047,0,0,1-.072-.052l.105-.333-.281-.207a.047.047,0,0,1,.028-.085l.349,0,.11-.331A.047.047,0,0,1,86.228,184.339Z" transform="translate(-81.601 -179.996)" fill="#f5f5f5"/>
      <path id="Path_628" data-name="Path 628" d="M86.228,214.994l.11.331.349,0a.047.047,0,0,1,.028.085l-.281.207.105.333a.047.047,0,0,1-.072.052l-.284-.2-.284.2a.047.047,0,0,1-.072-.052l.105-.333-.281-.207a.047.047,0,0,1,.028-.085l.349,0,.11-.331A.047.047,0,0,1,86.228,214.994Z" transform="translate(-81.601 -208.919)" fill="#f5f5f5"/>
      <path id="Path_629" data-name="Path 629" d="M110.02,108l.11.331.349,0a.047.047,0,0,1,.028.085l-.281.207.105.333a.047.047,0,0,1-.072.052l-.284-.2-.284.2a.047.047,0,0,1-.072-.052l.105-.333-.281-.207a.047.047,0,0,1,.028-.085l.349,0,.11-.331A.047.047,0,0,1,110.02,108Z" transform="translate(-104.05 -107.969)" fill="#f5f5f5"/>
      <path id="Path_630" data-name="Path 630" d="M110.02,138.656l.11.331.349,0a.047.047,0,0,1,.028.085l-.281.207.105.333a.047.047,0,0,1-.072.052l-.284-.2-.284.2a.047.047,0,0,1-.072-.052l.105-.333-.281-.207a.047.047,0,0,1,.028-.085l.349,0,.11-.331A.047.047,0,0,1,110.02,138.656Z" transform="translate(-104.05 -136.892)" fill="#f5f5f5"/>
      <path id="Path_631" data-name="Path 631" d="M110.02,169.31l.11.331.349,0a.047.047,0,0,1,.028.085l-.281.207.105.333a.047.047,0,0,1-.072.052l-.284-.2-.284.2a.047.047,0,0,1-.072-.052l.105-.333-.281-.207a.047.047,0,0,1,.028-.085l.349,0,.11-.331A.047.047,0,0,1,110.02,169.31Z" transform="translate(-104.05 -165.815)" fill="#f5f5f5"/>
      <path id="Path_632" data-name="Path 632" d="M110.02,199.964l.11.331.349,0a.047.047,0,0,1,.028.085l-.281.207.105.333a.047.047,0,0,1-.072.052l-.284-.2-.284.2a.047.047,0,0,1-.072-.052l.105-.333-.281-.207a.047.047,0,0,1,.028-.085l.349,0,.11-.331A.047.047,0,0,1,110.02,199.964Z" transform="translate(-104.05 -194.738)" fill="#f5f5f5"/>
      <path id="Path_633" data-name="Path 633" d="M110.02,230.617l.11.331.349,0a.047.047,0,0,1,.028.085l-.281.207.105.333a.047.047,0,0,1-.072.052l-.284-.2-.284.2a.047.047,0,0,1-.072-.052l.105-.333-.281-.207a.047.047,0,0,1,.028-.085l.349,0,.11-.331A.047.047,0,0,1,110.02,230.617Z" transform="translate(-104.05 -223.66)" fill="#f5f5f5"/>
      <path id="Path_634" data-name="Path 634" d="M133.814,123.031l.11.331.349,0a.047.047,0,0,1,.028.085l-.281.207.105.333a.047.047,0,0,1-.072.052l-.284-.2-.284.2a.047.047,0,0,1-.072-.052l.105-.333-.281-.207a.047.047,0,0,1,.028-.085l.349,0,.11-.331A.047.047,0,0,1,133.814,123.031Z" transform="translate(-126.5 -122.15)" fill="#f5f5f5"/>
      <path id="Path_635" data-name="Path 635" d="M133.814,153.685l.11.331.349,0a.047.047,0,0,1,.028.085l-.281.207.105.333a.047.047,0,0,1-.072.052l-.284-.2-.284.2a.047.047,0,0,1-.072-.052l.105-.333-.281-.207a.047.047,0,0,1,.028-.085l.349,0,.11-.331A.047.047,0,0,1,133.814,153.685Z" transform="translate(-126.5 -151.073)" fill="#f5f5f5"/>
      <path id="Path_636" data-name="Path 636" d="M133.814,184.339l.11.331.349,0a.047.047,0,0,1,.028.085l-.281.207.105.333a.047.047,0,0,1-.072.052l-.284-.2-.284.2a.047.047,0,0,1-.072-.052l.105-.333-.281-.207a.047.047,0,0,1,.028-.085l.349,0,.11-.331A.047.047,0,0,1,133.814,184.339Z" transform="translate(-126.5 -179.996)" fill="#f5f5f5"/>
      <path id="Path_637" data-name="Path 637" d="M133.814,214.994l.11.331.349,0a.047.047,0,0,1,.028.085l-.281.207.105.333a.047.047,0,0,1-.072.052l-.284-.2-.284.2a.047.047,0,0,1-.072-.052l.105-.333-.281-.207a.047.047,0,0,1,.028-.085l.349,0,.11-.331A.047.047,0,0,1,133.814,214.994Z" transform="translate(-126.5 -208.919)" fill="#f5f5f5"/>
      <path id="Path_638" data-name="Path 638" d="M157.608,108l.11.331.349,0a.047.047,0,0,1,.027.085l-.281.207.105.333a.047.047,0,0,1-.072.052l-.284-.2-.284.2a.047.047,0,0,1-.072-.052l.105-.333-.281-.207a.047.047,0,0,1,.028-.085l.349,0,.11-.331A.047.047,0,0,1,157.608,108Z" transform="translate(-148.95 -107.969)" fill="#f5f5f5"/>
      <path id="Path_639" data-name="Path 639" d="M157.608,138.656l.11.331.349,0a.047.047,0,0,1,.027.085l-.281.207.105.333a.047.047,0,0,1-.072.052l-.284-.2-.284.2a.047.047,0,0,1-.072-.052l.105-.333-.281-.207a.047.047,0,0,1,.028-.085l.349,0,.11-.331A.047.047,0,0,1,157.608,138.656Z" transform="translate(-148.95 -136.892)" fill="#f5f5f5"/>
      <path id="Path_640" data-name="Path 640" d="M157.608,169.31l.11.331.349,0a.047.047,0,0,1,.027.085l-.281.207.105.333a.047.047,0,0,1-.072.052l-.284-.2-.284.2a.047.047,0,0,1-.072-.052l.105-.333-.281-.207a.047.047,0,0,1,.028-.085l.349,0,.11-.331A.047.047,0,0,1,157.608,169.31Z" transform="translate(-148.95 -165.815)" fill="#f5f5f5"/>
      <path id="Path_641" data-name="Path 641" d="M157.608,199.964l.11.331.349,0a.047.047,0,0,1,.027.085l-.281.207.105.333a.047.047,0,0,1-.072.052l-.284-.2-.284.2a.047.047,0,0,1-.072-.052l.105-.333-.281-.207a.047.047,0,0,1,.028-.085l.349,0,.11-.331A.047.047,0,0,1,157.608,199.964Z" transform="translate(-148.95 -194.738)" fill="#f5f5f5"/>
      <path id="Path_642" data-name="Path 642" d="M157.608,230.617l.11.331.349,0a.047.047,0,0,1,.027.085l-.281.207.105.333a.047.047,0,0,1-.072.052l-.284-.2-.284.2a.047.047,0,0,1-.072-.052l.105-.333-.281-.207a.047.047,0,0,1,.028-.085l.349,0,.11-.331A.047.047,0,0,1,157.608,230.617Z" transform="translate(-148.95 -223.66)" fill="#f5f5f5"/>
      <path id="Path_643" data-name="Path 643" d="M181.4,123.031l.11.331.349,0a.047.047,0,0,1,.028.085l-.281.207.105.333a.047.047,0,0,1-.072.052l-.284-.2-.284.2a.047.047,0,0,1-.072-.052l.105-.333-.281-.207a.047.047,0,0,1,.027-.085l.349,0,.11-.331A.047.047,0,0,1,181.4,123.031Z" transform="translate(-171.399 -122.15)" fill="#f5f5f5"/>
      <path id="Path_644" data-name="Path 644" d="M181.4,153.685l.11.331.349,0a.047.047,0,0,1,.028.085l-.281.207.105.333a.047.047,0,0,1-.072.052l-.284-.2-.284.2a.047.047,0,0,1-.072-.052l.105-.333-.281-.207a.047.047,0,0,1,.027-.085l.349,0,.11-.331A.047.047,0,0,1,181.4,153.685Z" transform="translate(-171.399 -151.073)" fill="#f5f5f5"/>
      <path id="Path_645" data-name="Path 645" d="M181.4,184.339l.11.331.349,0a.047.047,0,0,1,.028.085l-.281.207.105.333a.047.047,0,0,1-.072.052l-.284-.2-.284.2A.047.047,0,0,1,181,185.3l.105-.333-.281-.207a.047.047,0,0,1,.027-.085l.349,0,.11-.331A.047.047,0,0,1,181.4,184.339Z" transform="translate(-171.399 -179.996)" fill="#f5f5f5"/>
      <path id="Path_646" data-name="Path 646" d="M181.4,214.994l.11.331.349,0a.047.047,0,0,1,.028.085l-.281.207.105.333a.047.047,0,0,1-.072.052l-.284-.2-.284.2a.047.047,0,0,1-.072-.052l.105-.333-.281-.207a.047.047,0,0,1,.027-.085l.349,0,.11-.331A.047.047,0,0,1,181.4,214.994Z" transform="translate(-171.399 -208.919)" fill="#f5f5f5"/>
      <path id="Path_647" data-name="Path 647" d="M205.195,108l.11.331.349,0a.047.047,0,0,1,.027.085l-.281.207.105.333a.047.047,0,0,1-.072.052l-.284-.2-.284.2a.047.047,0,0,1-.072-.052l.105-.333-.281-.207a.047.047,0,0,1,.028-.085l.349,0,.11-.331A.047.047,0,0,1,205.195,108Z" transform="translate(-193.85 -107.969)" fill="#f5f5f5"/>
      <path id="Path_648" data-name="Path 648" d="M205.195,138.656l.11.331.349,0a.047.047,0,0,1,.027.085l-.281.207.105.333a.047.047,0,0,1-.072.052l-.284-.2-.284.2a.047.047,0,0,1-.072-.052l.105-.333-.281-.207a.047.047,0,0,1,.028-.085l.349,0,.11-.331A.047.047,0,0,1,205.195,138.656Z" transform="translate(-193.85 -136.892)" fill="#f5f5f5"/>
      <path id="Path_649" data-name="Path 649" d="M205.195,169.31l.11.331.349,0a.047.047,0,0,1,.027.085l-.281.207.105.333a.047.047,0,0,1-.072.052l-.284-.2-.284.2a.047.047,0,0,1-.072-.052l.105-.333-.281-.207a.047.047,0,0,1,.028-.085l.349,0,.11-.331A.047.047,0,0,1,205.195,169.31Z" transform="translate(-193.85 -165.815)" fill="#f5f5f5"/>
      <path id="Path_650" data-name="Path 650" d="M205.195,199.964l.11.331.349,0a.047.047,0,0,1,.027.085l-.281.207.105.333a.047.047,0,0,1-.072.052l-.284-.2-.284.2a.047.047,0,0,1-.072-.052l.105-.333-.281-.207a.047.047,0,0,1,.028-.085l.349,0,.11-.331A.047.047,0,0,1,205.195,199.964Z" transform="translate(-193.85 -194.738)" fill="#f5f5f5"/>
      <path id="Path_651" data-name="Path 651" d="M205.195,230.617l.11.331.349,0a.047.047,0,0,1,.027.085l-.281.207.105.333a.047.047,0,0,1-.072.052l-.284-.2-.284.2a.047.047,0,0,1-.072-.052l.105-.333-.281-.207a.047.047,0,0,1,.028-.085l.349,0,.11-.331A.047.047,0,0,1,205.195,230.617Z" transform="translate(-193.85 -223.66)" fill="#f5f5f5"/>
    </g>
  </g>
</svg>
